<svg width="725" height="1467" viewBox="0 0 725 1467" fill="none" xmlns="http://www.w3.org/2000/svg">
<path d="M5 166.4C5 108.155 5 79.0318 16.3353 56.785C26.3062 37.2161 42.2161 21.3062 61.785 11.3353C84.0318 0 113.155 0 171.4 0H553.6C611.845 0 640.968 0 663.215 11.3353C682.784 21.3062 698.694 37.2161 708.665 56.785C720 79.0318 720 108.155 720 166.4V377H723C724.105 377 725 377.895 725 379V549C725 550.105 724.105 551 723 551H720V1300.6C720 1358.85 720 1387.97 708.665 1410.21C698.694 1429.78 682.784 1445.69 663.215 1455.66C640.968 1467 611.845 1467 553.6 1467H171.4C113.155 1467 84.0318 1467 61.785 1455.66C42.2161 1445.69 26.3062 1429.78 16.3353 1410.21C5 1387.97 5 1358.85 5 1300.6V586H2C0.89543 586 0 585.105 0 584V476C0 474.895 0.895431 474 2 474H5V449H2C0.89543 449 0 448.105 0 447V339C0 337.895 0.895431 337 2 337H5V290H2C0.89543 290 0 289.105 0 288V234C0 232.895 0.895431 232 2 232H5V166.4Z" fill="#353432"/>
<g style="mix-blend-mode:multiply">
<mask id="mask0" mask-type="alpha" maskUnits="userSpaceOnUse" x="5" y="0" width="715" height="1467">
<path d="M5 166.4C5 108.155 5 79.0318 16.3353 56.785C26.3062 37.2161 42.2161 21.3062 61.785 11.3353C84.0318 0 113.155 0 171.4 0H553.6C611.845 0 640.968 0 663.215 11.3353C682.784 21.3062 698.694 37.2161 708.665 56.785C720 79.0318 720 108.155 720 166.4V1300.6C720 1358.85 720 1387.97 708.665 1410.21C698.694 1429.78 682.784 1445.69 663.215 1455.66C640.968 1467 611.845 1467 553.6 1467H171.4C113.155 1467 84.0318 1467 61.785 1455.66C42.2161 1445.69 26.3062 1429.78 16.3353 1410.21C5 1387.97 5 1358.85 5 1300.6V166.4Z" fill="black"/>
</mask>
<g mask="url(#mask0)">
<g filter="url(#filter0_i)">
<path d="M5 166.4C5 108.155 5 79.0318 16.3353 56.785C26.3062 37.2161 42.2161 21.3062 61.785 11.3353C84.0318 0 113.155 0 171.4 0H553.6C611.845 0 640.968 0 663.215 11.3353C682.784 21.3062 698.694 37.2161 708.665 56.785C720 79.0318 720 108.155 720 166.4V1300.6C720 1358.85 720 1387.97 708.665 1410.21C698.694 1429.78 682.784 1445.69 663.215 1455.66C640.968 1467 611.845 1467 553.6 1467H171.4C113.155 1467 84.0318 1467 61.785 1455.66C42.2161 1445.69 26.3062 1429.78 16.3353 1410.21C5 1387.97 5 1358.85 5 1300.6V166.4Z" fill="#EBEBEB"/>
</g>
<rect x="1" y="125" width="17" height="14" fill="url(#paint0_linear)"/>
<rect x="1" y="1334" width="17" height="14" fill="url(#paint1_linear)"/>
<rect x="707" y="125" width="17" height="14" fill="url(#paint2_linear)"/>
<rect x="707" y="1334" width="17" height="14" fill="url(#paint3_linear)"/>
<rect x="568" y="-7" width="17" height="14" transform="rotate(90 568 -7)" fill="url(#paint4_linear)"/>
<rect x="147" y="1454" width="17" height="14" transform="rotate(90 147 1454)" fill="url(#paint5_linear)"/>
</g>
<path d="M13.25 163.2C13.25 136.033 13.2502 115.673 14.5707 99.5109C15.891 83.3514 18.5299 71.41 23.7951 61.0764C33.0709 42.8717 47.8717 28.0709 66.0764 18.7951C76.41 13.5299 88.3515 10.891 104.511 9.57072C120.673 8.25019 141.033 8.25 168.2 8.25H556.8C583.967 8.25 604.327 8.25019 620.489 9.57072C636.649 10.891 648.59 13.5299 658.924 18.7951C677.128 28.0709 691.929 42.8717 701.205 61.0764C706.47 71.41 709.109 83.3515 710.429 99.5109C711.75 115.673 711.75 136.033 711.75 163.2V1303.8C711.75 1330.97 711.75 1351.33 710.429 1367.49C709.109 1383.65 706.47 1395.59 701.205 1405.92C691.929 1424.13 677.128 1438.93 658.924 1448.2C648.59 1453.47 636.649 1456.11 620.489 1457.43C604.327 1458.75 583.967 1458.75 556.8 1458.75H168.2C141.033 1458.75 120.673 1458.75 104.511 1457.43C88.3515 1456.11 76.41 1453.47 66.0764 1448.2C47.8717 1438.93 33.0709 1424.13 23.7951 1405.92C18.5299 1395.59 15.891 1383.65 14.5707 1367.49C13.2502 1351.33 13.25 1330.97 13.25 1303.8V163.2Z" fill="black" stroke="url(#paint6_linear)" stroke-width="0.5"/>
<g filter="url(#filter1_ii)">
<path d="M0 234C0 232.895 0.895431 232 2 232H5V290H2C0.89543 290 0 289.105 0 288V234Z" fill="url(#paint7_linear)"/>
</g>
<g filter="url(#filter2_ii)">
<path d="M0 339C0 337.895 0.895431 337 2 337H5V449H2C0.89543 449 0 448.105 0 447V339Z" fill="url(#paint8_linear)"/>
</g>
<g filter="url(#filter3_ii)">
<path d="M720 377H723C724.105 377 725 377.895 725 379V549C725 550.105 724.105 551 723 551H720V377Z" fill="url(#paint9_linear)"/>
</g>
<g filter="url(#filter4_ii)">
<path d="M0 476C0 474.895 0.895431 474 2 474H5V586H2C0.89543 586 0 585.105 0 584V476Z" fill="url(#paint10_linear)"/>
</g>
</g>
<g style="mix-blend-mode:screen">
<mask id="mask1" mask-type="alpha" maskUnits="userSpaceOnUse" x="5" y="0" width="715" height="1467">
<path d="M5 166.4C5 108.155 5 79.0318 16.3353 56.785C26.3062 37.2161 42.2161 21.3062 61.785 11.3353C84.0318 0 113.155 0 171.4 0H553.6C611.845 0 640.968 0 663.215 11.3353C682.784 21.3062 698.694 37.2161 708.665 56.785C720 79.0318 720 108.155 720 166.4V1300.6C720 1358.85 720 1387.97 708.665 1410.21C698.694 1429.78 682.784 1445.69 663.215 1455.66C640.968 1467 611.845 1467 553.6 1467H171.4C113.155 1467 84.0318 1467 61.785 1455.66C42.2161 1445.69 26.3062 1429.78 16.3353 1410.21C5 1387.97 5 1358.85 5 1300.6V166.4Z" fill="black"/>
</mask>
<g mask="url(#mask1)">
<g filter="url(#filter5_ii)">
<path d="M5 166.4C5 108.155 5 79.0318 16.3353 56.785C26.3062 37.2161 42.2161 21.3062 61.785 11.3353C84.0318 0 113.155 0 171.4 0H553.6C611.845 0 640.968 0 663.215 11.3353C682.784 21.3062 698.694 37.2161 708.665 56.785C720 79.0318 720 108.155 720 166.4V1300.6C720 1358.85 720 1387.97 708.665 1410.21C698.694 1429.78 682.784 1445.69 663.215 1455.66C640.968 1467 611.845 1467 553.6 1467H171.4C113.155 1467 84.0318 1467 61.785 1455.66C42.2161 1445.69 26.3062 1429.78 16.3353 1410.21C5 1387.97 5 1358.85 5 1300.6V166.4Z" fill="#050505"/>
</g>
<path d="M6 166.4C6 137.261 6.00078 115.466 7.41359 98.1744C8.82546 80.8941 11.6425 68.1979 17.2263 57.239C27.1013 37.8583 42.8583 22.1013 62.239 12.2263C73.1979 6.64247 85.8941 3.82546 103.174 2.41359C120.466 1.00078 142.261 1 171.4 1H553.6C582.739 1 604.534 1.00078 621.826 2.41359C639.106 3.82546 651.802 6.64247 662.761 12.2263C682.142 22.1013 697.899 37.8583 707.774 57.239C713.358 68.1979 716.175 80.8941 717.586 98.1744C718.999 115.466 719 137.261 719 166.4V1300.6C719 1329.74 718.999 1351.53 717.586 1368.83C716.175 1386.11 713.358 1398.8 707.774 1409.76C697.899 1429.14 682.142 1444.9 662.761 1454.77C651.802 1460.36 639.106 1463.17 621.826 1464.59C604.534 1466 582.739 1466 553.6 1466H171.4C142.261 1466 120.466 1466 103.174 1464.59C85.8941 1463.17 73.1979 1460.36 62.239 1454.77C42.8583 1444.9 27.1013 1429.14 17.2263 1409.76C11.6425 1398.8 8.82546 1386.11 7.41359 1368.83C6.00078 1351.53 6 1329.74 6 1300.6V166.4Z" stroke="url(#paint11_linear)" stroke-width="2"/>
<rect x="1" y="125" width="17" height="14" fill="url(#paint12_linear)"/>
<rect x="1" y="1334" width="17" height="14" fill="url(#paint13_linear)"/>
<rect x="707" y="125" width="17" height="14" fill="url(#paint14_linear)"/>
<rect x="707" y="1334" width="17" height="14" fill="url(#paint15_linear)"/>
<rect x="568" y="-7" width="17" height="14" transform="rotate(90 568 -7)" fill="url(#paint16_linear)"/>
<rect x="147" y="1454" width="17" height="14" transform="rotate(90 147 1454)" fill="url(#paint17_linear)"/>
</g>
<path d="M13.25 163.2C13.25 136.033 13.2502 115.673 14.5707 99.5109C15.891 83.3514 18.5299 71.41 23.7951 61.0764C33.0709 42.8717 47.8717 28.0709 66.0764 18.7951C76.41 13.5299 88.3515 10.891 104.511 9.57072C120.673 8.25019 141.033 8.25 168.2 8.25H556.8C583.967 8.25 604.327 8.25019 620.489 9.57072C636.649 10.891 648.59 13.5299 658.924 18.7951C677.128 28.0709 691.929 42.8717 701.205 61.0764C706.47 71.41 709.109 83.3515 710.429 99.5109C711.75 115.673 711.75 136.033 711.75 163.2V1303.8C711.75 1330.97 711.75 1351.33 710.429 1367.49C709.109 1383.65 706.47 1395.59 701.205 1405.92C691.929 1424.13 677.128 1438.93 658.924 1448.2C648.59 1453.47 636.649 1456.11 620.489 1457.43C604.327 1458.75 583.967 1458.75 556.8 1458.75H168.2C141.033 1458.75 120.673 1458.75 104.511 1457.43C88.3515 1456.11 76.41 1453.47 66.0764 1448.2C47.8717 1438.93 33.0709 1424.13 23.7951 1405.92C18.5299 1395.59 15.891 1383.65 14.5707 1367.49C13.2502 1351.33 13.25 1330.97 13.25 1303.8V163.2Z" fill="black" stroke="url(#paint18_linear)" stroke-width="0.5"/>
<path d="M47.4116 73.1286C40 87.6746 40 106.716 40 144.8V1322.2C40 1360.28 40 1379.33 47.4116 1393.87C53.9309 1406.67 64.3336 1417.07 77.1286 1423.59C91.6746 1431 110.716 1431 148.8 1431H576.2C614.284 1431 633.325 1431 647.871 1423.59C660.666 1417.07 671.069 1406.67 677.588 1393.87C685 1379.33 685 1360.28 685 1322.2V144.8C685 106.716 685 87.6746 677.588 73.1286C671.069 60.3336 660.666 49.9309 647.871 43.4116C633.325 36 614.284 36 576.2 36H542.778C541.122 36 540.295 36 539.632 36.2412C538.521 36.6456 537.646 37.5209 537.241 38.6319C537 39.2947 537 40.1224 537 41.7778C537 55.0209 537 61.6425 535.07 66.9446C531.835 75.8332 524.833 82.835 515.945 86.0702C510.642 88 504.021 88 490.778 88H234.222C220.979 88 214.358 88 209.055 86.0702C200.167 82.835 193.165 75.8332 189.93 66.9446C188 61.6425 188 55.0209 188 41.7778C188 40.1224 188 39.2947 187.759 38.6319C187.354 37.5209 186.479 36.6456 185.368 36.2412C184.705 36 183.878 36 182.222 36H148.8C110.716 36 91.6746 36 77.1286 43.4116C64.3336 49.9309 53.9309 60.3336 47.4116 73.1286Z" fill="black"/>
<g filter="url(#filter6_iiii)">
<path d="M0 234C0 232.895 0.895431 232 2 232H5V290H2C0.89543 290 0 289.105 0 288V234Z" fill="url(#paint19_linear)"/>
</g>
<g filter="url(#filter7_iiii)">
<path d="M0 339C0 337.895 0.895431 337 2 337H5V449H2C0.89543 449 0 448.105 0 447V339Z" fill="url(#paint20_linear)"/>
</g>
<g filter="url(#filter8_iiii)">
<path d="M720 377H723C724.105 377 725 377.895 725 379V549C725 550.105 724.105 551 723 551H720V377Z" fill="url(#paint21_linear)"/>
</g>
<g filter="url(#filter9_iiii)">
<path d="M0 476C0 474.895 0.895431 474 2 474H5V586H2C0.89543 586 0 585.105 0 584V476Z" fill="url(#paint22_linear)"/>
</g>
</g>
<mask id="mask2" mask-type="alpha" maskUnits="userSpaceOnUse" x="40" y="36" width="645" height="1395">
<path d="M47.4116 73.1286C40 87.6746 40 106.716 40 144.8V1322.2C40 1360.28 40 1379.33 47.4116 1393.87C53.9309 1406.67 64.3336 1417.07 77.1286 1423.59C91.6746 1431 110.716 1431 148.8 1431H576.2C614.284 1431 633.325 1431 647.871 1423.59C660.666 1417.07 671.069 1406.67 677.588 1393.87C685 1379.33 685 1360.28 685 1322.2V144.8C685 106.716 685 87.6746 677.588 73.1286C671.069 60.3336 660.666 49.9309 647.871 43.4116C633.325 36 614.284 36 576.2 36H542.778C541.122 36 540.295 36 539.632 36.2412C538.521 36.6456 537.646 37.5209 537.241 38.6319C537 39.2947 537 40.1224 537 41.7778C537 55.0209 537 61.6425 535.07 66.9446C531.835 75.8332 524.833 82.835 515.945 86.0702C510.642 88 504.021 88 490.778 88H234.222C220.979 88 214.358 88 209.055 86.0702C200.167 82.835 193.165 75.8332 189.93 66.9446C188 61.6425 188 55.0209 188 41.7778C188 40.1224 188 39.2947 187.759 38.6319C187.354 37.5209 186.479 36.6456 185.368 36.2412C184.705 36 183.878 36 182.222 36H148.8C110.716 36 91.6746 36 77.1286 43.4116C64.3336 49.9309 53.9309 60.3336 47.4116 73.1286Z" fill="#161616"/>
</mask>
<g mask="url(#mask2)">
<rect x="41" y="36" width="644" height="1395"/>
</g>
<g filter="url(#filter10_i)">
<path d="M324 55C324 51.134 327.134 48 331 48H395C398.866 48 402 51.134 402 55C402 58.866 398.866 62 395 62H331C327.134 62 324 58.866 324 55Z" fill="#161616"/>
</g>
<g filter="url(#filter11_f)">
<path d="M325 55C325 51.6863 327.686 49 331 49H395C398.314 49 401 51.6863 401 55C401 58.3137 398.314 61 395 61H331C327.686 61 325 58.3137 325 55Z" stroke="black" stroke-opacity="0.32" stroke-width="2"/>
</g>
<path d="M324.5 55C324.5 51.4101 327.41 48.5 331 48.5H395C398.59 48.5 401.5 51.4101 401.5 55C401.5 58.5899 398.59 61.5 395 61.5H331C327.41 61.5 324.5 58.5899 324.5 55Z" stroke="url(#paint23_linear)"/>
<path d="M418 55C418 47.268 424.268 41 432 41C439.732 41 446 47.268 446 55C446 62.732 439.732 69 432 69C424.268 69 418 62.732 418 55Z" fill="url(#paint24_radial)"/>
<path d="M418 55C418 47.268 424.268 41 432 41C439.732 41 446 47.268 446 55C446 62.732 439.732 69 432 69C424.268 69 418 62.732 418 55Z" fill="url(#paint25_radial)"/>
<path d="M439 55C439 51.134 435.866 48 432 48C428.134 48 425 51.134 425 55C425 58.866 428.134 62 432 62C435.866 62 439 58.866 439 55Z" fill="url(#paint26_linear)"/>
<path d="M439 55C439 51.134 435.866 48 432 48C428.134 48 425 51.134 425 55C425 58.866 428.134 62 432 62C435.866 62 439 58.866 439 55Z" fill="url(#paint27_radial)"/>
<path d="M439 55C439 51.134 435.866 48 432 48C428.134 48 425 51.134 425 55C425 58.866 428.134 62 432 62C435.866 62 439 58.866 439 55Z" fill="url(#paint28_radial)"/>
<path d="M439 55C439 51.134 435.866 48 432 48C428.134 48 425 51.134 425 55C425 58.866 428.134 62 432 62C435.866 62 439 58.866 439 55Z" fill="url(#paint29_radial)"/>
<path d="M439 55C439 51.134 435.866 48 432 48C428.134 48 425 51.134 425 55C425 58.866 428.134 62 432 62C435.866 62 439 58.866 439 55Z" fill="url(#paint30_radial)"/>
<defs>
<filter id="filter0_i" x="5" y="0" width="715" height="1467" filterUnits="userSpaceOnUse" color-interpolation-filters="sRGB">
<feFlood flood-opacity="0" result="BackgroundImageFix"/>
<feBlend mode="normal" in="SourceGraphic" in2="BackgroundImageFix" result="shape"/>
<feColorMatrix in="SourceAlpha" type="matrix" values="0 0 0 0 0 0 0 0 0 0 0 0 0 0 0 0 0 0 127 0" result="hardAlpha"/>
<feOffset/>
<feGaussianBlur stdDeviation="8"/>
<feComposite in2="hardAlpha" operator="arithmetic" k2="-1" k3="1"/>
<feColorMatrix type="matrix" values="0 0 0 0 0 0 0 0 0 0 0 0 0 0 0 0 0 0 0.32 0"/>
<feBlend mode="normal" in2="shape" result="effect1_innerShadow"/>
</filter>
<filter id="filter1_ii" x="0" y="230" width="5" height="62" filterUnits="userSpaceOnUse" color-interpolation-filters="sRGB">
<feFlood flood-opacity="0" result="BackgroundImageFix"/>
<feBlend mode="normal" in="SourceGraphic" in2="BackgroundImageFix" result="shape"/>
<feColorMatrix in="SourceAlpha" type="matrix" values="0 0 0 0 0 0 0 0 0 0 0 0 0 0 0 0 0 0 127 0" result="hardAlpha"/>
<feOffset dy="4"/>
<feGaussianBlur stdDeviation="1"/>
<feComposite in2="hardAlpha" operator="arithmetic" k2="-1" k3="1"/>
<feColorMatrix type="matrix" values="0 0 0 0 1 0 0 0 0 1 0 0 0 0 1 0 0 0 0.64 0"/>
<feBlend mode="normal" in2="shape" result="effect1_innerShadow"/>
<feColorMatrix in="SourceAlpha" type="matrix" values="0 0 0 0 0 0 0 0 0 0 0 0 0 0 0 0 0 0 127 0" result="hardAlpha"/>
<feOffset dy="-4"/>
<feGaussianBlur stdDeviation="1"/>
<feComposite in2="hardAlpha" operator="arithmetic" k2="-1" k3="1"/>
<feColorMatrix type="matrix" values="0 0 0 0 1 0 0 0 0 1 0 0 0 0 1 0 0 0 0.64 0"/>
<feBlend mode="normal" in2="effect1_innerShadow" result="effect2_innerShadow"/>
</filter>
<filter id="filter2_ii" x="0" y="335" width="5" height="116" filterUnits="userSpaceOnUse" color-interpolation-filters="sRGB">
<feFlood flood-opacity="0" result="BackgroundImageFix"/>
<feBlend mode="normal" in="SourceGraphic" in2="BackgroundImageFix" result="shape"/>
<feColorMatrix in="SourceAlpha" type="matrix" values="0 0 0 0 0 0 0 0 0 0 0 0 0 0 0 0 0 0 127 0" result="hardAlpha"/>
<feOffset dy="4"/>
<feGaussianBlur stdDeviation="1"/>
<feComposite in2="hardAlpha" operator="arithmetic" k2="-1" k3="1"/>
<feColorMatrix type="matrix" values="0 0 0 0 1 0 0 0 0 1 0 0 0 0 1 0 0 0 0.64 0"/>
<feBlend mode="normal" in2="shape" result="effect1_innerShadow"/>
<feColorMatrix in="SourceAlpha" type="matrix" values="0 0 0 0 0 0 0 0 0 0 0 0 0 0 0 0 0 0 127 0" result="hardAlpha"/>
<feOffset dy="-4"/>
<feGaussianBlur stdDeviation="1"/>
<feComposite in2="hardAlpha" operator="arithmetic" k2="-1" k3="1"/>
<feColorMatrix type="matrix" values="0 0 0 0 1 0 0 0 0 1 0 0 0 0 1 0 0 0 0.64 0"/>
<feBlend mode="normal" in2="effect1_innerShadow" result="effect2_innerShadow"/>
</filter>
<filter id="filter3_ii" x="720" y="375" width="5" height="178" filterUnits="userSpaceOnUse" color-interpolation-filters="sRGB">
<feFlood flood-opacity="0" result="BackgroundImageFix"/>
<feBlend mode="normal" in="SourceGraphic" in2="BackgroundImageFix" result="shape"/>
<feColorMatrix in="SourceAlpha" type="matrix" values="0 0 0 0 0 0 0 0 0 0 0 0 0 0 0 0 0 0 127 0" result="hardAlpha"/>
<feOffset dy="4"/>
<feGaussianBlur stdDeviation="1"/>
<feComposite in2="hardAlpha" operator="arithmetic" k2="-1" k3="1"/>
<feColorMatrix type="matrix" values="0 0 0 0 1 0 0 0 0 1 0 0 0 0 1 0 0 0 0.64 0"/>
<feBlend mode="normal" in2="shape" result="effect1_innerShadow"/>
<feColorMatrix in="SourceAlpha" type="matrix" values="0 0 0 0 0 0 0 0 0 0 0 0 0 0 0 0 0 0 127 0" result="hardAlpha"/>
<feOffset dy="-4"/>
<feGaussianBlur stdDeviation="1"/>
<feComposite in2="hardAlpha" operator="arithmetic" k2="-1" k3="1"/>
<feColorMatrix type="matrix" values="0 0 0 0 1 0 0 0 0 1 0 0 0 0 1 0 0 0 0.64 0"/>
<feBlend mode="normal" in2="effect1_innerShadow" result="effect2_innerShadow"/>
</filter>
<filter id="filter4_ii" x="0" y="472" width="5" height="116" filterUnits="userSpaceOnUse" color-interpolation-filters="sRGB">
<feFlood flood-opacity="0" result="BackgroundImageFix"/>
<feBlend mode="normal" in="SourceGraphic" in2="BackgroundImageFix" result="shape"/>
<feColorMatrix in="SourceAlpha" type="matrix" values="0 0 0 0 0 0 0 0 0 0 0 0 0 0 0 0 0 0 127 0" result="hardAlpha"/>
<feOffset dy="4"/>
<feGaussianBlur stdDeviation="1"/>
<feComposite in2="hardAlpha" operator="arithmetic" k2="-1" k3="1"/>
<feColorMatrix type="matrix" values="0 0 0 0 1 0 0 0 0 1 0 0 0 0 1 0 0 0 0.64 0"/>
<feBlend mode="normal" in2="shape" result="effect1_innerShadow"/>
<feColorMatrix in="SourceAlpha" type="matrix" values="0 0 0 0 0 0 0 0 0 0 0 0 0 0 0 0 0 0 127 0" result="hardAlpha"/>
<feOffset dy="-4"/>
<feGaussianBlur stdDeviation="1"/>
<feComposite in2="hardAlpha" operator="arithmetic" k2="-1" k3="1"/>
<feColorMatrix type="matrix" values="0 0 0 0 1 0 0 0 0 1 0 0 0 0 1 0 0 0 0.64 0"/>
<feBlend mode="normal" in2="effect1_innerShadow" result="effect2_innerShadow"/>
</filter>
<filter id="filter5_ii" x="5" y="0" width="715" height="1467" filterUnits="userSpaceOnUse" color-interpolation-filters="sRGB">
<feFlood flood-opacity="0" result="BackgroundImageFix"/>
<feBlend mode="normal" in="SourceGraphic" in2="BackgroundImageFix" result="shape"/>
<feColorMatrix in="SourceAlpha" type="matrix" values="0 0 0 0 0 0 0 0 0 0 0 0 0 0 0 0 0 0 127 0" result="hardAlpha"/>
<feOffset/>
<feGaussianBlur stdDeviation="5"/>
<feComposite in2="hardAlpha" operator="arithmetic" k2="-1" k3="1"/>
<feColorMatrix type="matrix" values="0 0 0 0 1 0 0 0 0 1 0 0 0 0 1 0 0 0 0.88 0"/>
<feBlend mode="normal" in2="shape" result="effect1_innerShadow"/>
<feColorMatrix in="SourceAlpha" type="matrix" values="0 0 0 0 0 0 0 0 0 0 0 0 0 0 0 0 0 0 127 0" result="hardAlpha"/>
<feOffset/>
<feGaussianBlur stdDeviation="2.5"/>
<feComposite in2="hardAlpha" operator="arithmetic" k2="-1" k3="1"/>
<feColorMatrix type="matrix" values="0 0 0 0 0 0 0 0 0 0 0 0 0 0 0 0 0 0 1 0"/>
<feBlend mode="normal" in2="effect1_innerShadow" result="effect2_innerShadow"/>
</filter>
<filter id="filter6_iiii" x="0" y="230" width="5" height="62" filterUnits="userSpaceOnUse" color-interpolation-filters="sRGB">
<feFlood flood-opacity="0" result="BackgroundImageFix"/>
<feBlend mode="normal" in="SourceGraphic" in2="BackgroundImageFix" result="shape"/>
<feColorMatrix in="SourceAlpha" type="matrix" values="0 0 0 0 0 0 0 0 0 0 0 0 0 0 0 0 0 0 127 0" result="hardAlpha"/>
<feOffset dy="4"/>
<feGaussianBlur stdDeviation="1"/>
<feComposite in2="hardAlpha" operator="arithmetic" k2="-1" k3="1"/>
<feColorMatrix type="matrix" values="0 0 0 0 1 0 0 0 0 1 0 0 0 0 1 0 0 0 0.08 0"/>
<feBlend mode="normal" in2="shape" result="effect1_innerShadow"/>
<feColorMatrix in="SourceAlpha" type="matrix" values="0 0 0 0 0 0 0 0 0 0 0 0 0 0 0 0 0 0 127 0" result="hardAlpha"/>
<feOffset dy="-4"/>
<feGaussianBlur stdDeviation="1"/>
<feComposite in2="hardAlpha" operator="arithmetic" k2="-1" k3="1"/>
<feColorMatrix type="matrix" values="0 0 0 0 1 0 0 0 0 1 0 0 0 0 1 0 0 0 0.08 0"/>
<feBlend mode="normal" in2="effect1_innerShadow" result="effect2_innerShadow"/>
<feColorMatrix in="SourceAlpha" type="matrix" values="0 0 0 0 0 0 0 0 0 0 0 0 0 0 0 0 0 0 127 0" result="hardAlpha"/>
<feOffset dy="1"/>
<feGaussianBlur stdDeviation="0.5"/>
<feComposite in2="hardAlpha" operator="arithmetic" k2="-1" k3="1"/>
<feColorMatrix type="matrix" values="0 0 0 0 1 0 0 0 0 1 0 0 0 0 1 0 0 0 0.32 0"/>
<feBlend mode="normal" in2="effect2_innerShadow" result="effect3_innerShadow"/>
<feColorMatrix in="SourceAlpha" type="matrix" values="0 0 0 0 0 0 0 0 0 0 0 0 0 0 0 0 0 0 127 0" result="hardAlpha"/>
<feOffset dy="-1"/>
<feGaussianBlur stdDeviation="0.5"/>
<feComposite in2="hardAlpha" operator="arithmetic" k2="-1" k3="1"/>
<feColorMatrix type="matrix" values="0 0 0 0 1 0 0 0 0 1 0 0 0 0 1 0 0 0 0.32 0"/>
<feBlend mode="normal" in2="effect3_innerShadow" result="effect4_innerShadow"/>
</filter>
<filter id="filter7_iiii" x="0" y="335" width="5" height="116" filterUnits="userSpaceOnUse" color-interpolation-filters="sRGB">
<feFlood flood-opacity="0" result="BackgroundImageFix"/>
<feBlend mode="normal" in="SourceGraphic" in2="BackgroundImageFix" result="shape"/>
<feColorMatrix in="SourceAlpha" type="matrix" values="0 0 0 0 0 0 0 0 0 0 0 0 0 0 0 0 0 0 127 0" result="hardAlpha"/>
<feOffset dy="4"/>
<feGaussianBlur stdDeviation="1"/>
<feComposite in2="hardAlpha" operator="arithmetic" k2="-1" k3="1"/>
<feColorMatrix type="matrix" values="0 0 0 0 1 0 0 0 0 1 0 0 0 0 1 0 0 0 0.08 0"/>
<feBlend mode="normal" in2="shape" result="effect1_innerShadow"/>
<feColorMatrix in="SourceAlpha" type="matrix" values="0 0 0 0 0 0 0 0 0 0 0 0 0 0 0 0 0 0 127 0" result="hardAlpha"/>
<feOffset dy="-4"/>
<feGaussianBlur stdDeviation="1"/>
<feComposite in2="hardAlpha" operator="arithmetic" k2="-1" k3="1"/>
<feColorMatrix type="matrix" values="0 0 0 0 1 0 0 0 0 1 0 0 0 0 1 0 0 0 0.08 0"/>
<feBlend mode="normal" in2="effect1_innerShadow" result="effect2_innerShadow"/>
<feColorMatrix in="SourceAlpha" type="matrix" values="0 0 0 0 0 0 0 0 0 0 0 0 0 0 0 0 0 0 127 0" result="hardAlpha"/>
<feOffset dy="1"/>
<feGaussianBlur stdDeviation="0.5"/>
<feComposite in2="hardAlpha" operator="arithmetic" k2="-1" k3="1"/>
<feColorMatrix type="matrix" values="0 0 0 0 1 0 0 0 0 1 0 0 0 0 1 0 0 0 0.32 0"/>
<feBlend mode="normal" in2="effect2_innerShadow" result="effect3_innerShadow"/>
<feColorMatrix in="SourceAlpha" type="matrix" values="0 0 0 0 0 0 0 0 0 0 0 0 0 0 0 0 0 0 127 0" result="hardAlpha"/>
<feOffset dy="-1"/>
<feGaussianBlur stdDeviation="0.5"/>
<feComposite in2="hardAlpha" operator="arithmetic" k2="-1" k3="1"/>
<feColorMatrix type="matrix" values="0 0 0 0 1 0 0 0 0 1 0 0 0 0 1 0 0 0 0.32 0"/>
<feBlend mode="normal" in2="effect3_innerShadow" result="effect4_innerShadow"/>
</filter>
<filter id="filter8_iiii" x="720" y="375" width="5" height="178" filterUnits="userSpaceOnUse" color-interpolation-filters="sRGB">
<feFlood flood-opacity="0" result="BackgroundImageFix"/>
<feBlend mode="normal" in="SourceGraphic" in2="BackgroundImageFix" result="shape"/>
<feColorMatrix in="SourceAlpha" type="matrix" values="0 0 0 0 0 0 0 0 0 0 0 0 0 0 0 0 0 0 127 0" result="hardAlpha"/>
<feOffset dy="4"/>
<feGaussianBlur stdDeviation="1"/>
<feComposite in2="hardAlpha" operator="arithmetic" k2="-1" k3="1"/>
<feColorMatrix type="matrix" values="0 0 0 0 1 0 0 0 0 1 0 0 0 0 1 0 0 0 0.08 0"/>
<feBlend mode="normal" in2="shape" result="effect1_innerShadow"/>
<feColorMatrix in="SourceAlpha" type="matrix" values="0 0 0 0 0 0 0 0 0 0 0 0 0 0 0 0 0 0 127 0" result="hardAlpha"/>
<feOffset dy="-4"/>
<feGaussianBlur stdDeviation="1"/>
<feComposite in2="hardAlpha" operator="arithmetic" k2="-1" k3="1"/>
<feColorMatrix type="matrix" values="0 0 0 0 1 0 0 0 0 1 0 0 0 0 1 0 0 0 0.08 0"/>
<feBlend mode="normal" in2="effect1_innerShadow" result="effect2_innerShadow"/>
<feColorMatrix in="SourceAlpha" type="matrix" values="0 0 0 0 0 0 0 0 0 0 0 0 0 0 0 0 0 0 127 0" result="hardAlpha"/>
<feOffset dy="1"/>
<feGaussianBlur stdDeviation="0.5"/>
<feComposite in2="hardAlpha" operator="arithmetic" k2="-1" k3="1"/>
<feColorMatrix type="matrix" values="0 0 0 0 1 0 0 0 0 1 0 0 0 0 1 0 0 0 0.32 0"/>
<feBlend mode="normal" in2="effect2_innerShadow" result="effect3_innerShadow"/>
<feColorMatrix in="SourceAlpha" type="matrix" values="0 0 0 0 0 0 0 0 0 0 0 0 0 0 0 0 0 0 127 0" result="hardAlpha"/>
<feOffset dy="-1"/>
<feGaussianBlur stdDeviation="0.5"/>
<feComposite in2="hardAlpha" operator="arithmetic" k2="-1" k3="1"/>
<feColorMatrix type="matrix" values="0 0 0 0 1 0 0 0 0 1 0 0 0 0 1 0 0 0 0.32 0"/>
<feBlend mode="normal" in2="effect3_innerShadow" result="effect4_innerShadow"/>
</filter>
<filter id="filter9_iiii" x="0" y="472" width="5" height="116" filterUnits="userSpaceOnUse" color-interpolation-filters="sRGB">
<feFlood flood-opacity="0" result="BackgroundImageFix"/>
<feBlend mode="normal" in="SourceGraphic" in2="BackgroundImageFix" result="shape"/>
<feColorMatrix in="SourceAlpha" type="matrix" values="0 0 0 0 0 0 0 0 0 0 0 0 0 0 0 0 0 0 127 0" result="hardAlpha"/>
<feOffset dy="4"/>
<feGaussianBlur stdDeviation="1"/>
<feComposite in2="hardAlpha" operator="arithmetic" k2="-1" k3="1"/>
<feColorMatrix type="matrix" values="0 0 0 0 1 0 0 0 0 1 0 0 0 0 1 0 0 0 0.08 0"/>
<feBlend mode="normal" in2="shape" result="effect1_innerShadow"/>
<feColorMatrix in="SourceAlpha" type="matrix" values="0 0 0 0 0 0 0 0 0 0 0 0 0 0 0 0 0 0 127 0" result="hardAlpha"/>
<feOffset dy="-4"/>
<feGaussianBlur stdDeviation="1"/>
<feComposite in2="hardAlpha" operator="arithmetic" k2="-1" k3="1"/>
<feColorMatrix type="matrix" values="0 0 0 0 1 0 0 0 0 1 0 0 0 0 1 0 0 0 0.08 0"/>
<feBlend mode="normal" in2="effect1_innerShadow" result="effect2_innerShadow"/>
<feColorMatrix in="SourceAlpha" type="matrix" values="0 0 0 0 0 0 0 0 0 0 0 0 0 0 0 0 0 0 127 0" result="hardAlpha"/>
<feOffset dy="1"/>
<feGaussianBlur stdDeviation="0.5"/>
<feComposite in2="hardAlpha" operator="arithmetic" k2="-1" k3="1"/>
<feColorMatrix type="matrix" values="0 0 0 0 1 0 0 0 0 1 0 0 0 0 1 0 0 0 0.32 0"/>
<feBlend mode="normal" in2="effect2_innerShadow" result="effect3_innerShadow"/>
<feColorMatrix in="SourceAlpha" type="matrix" values="0 0 0 0 0 0 0 0 0 0 0 0 0 0 0 0 0 0 127 0" result="hardAlpha"/>
<feOffset dy="-1"/>
<feGaussianBlur stdDeviation="0.5"/>
<feComposite in2="hardAlpha" operator="arithmetic" k2="-1" k3="1"/>
<feColorMatrix type="matrix" values="0 0 0 0 1 0 0 0 0 1 0 0 0 0 1 0 0 0 0.32 0"/>
<feBlend mode="normal" in2="effect3_innerShadow" result="effect4_innerShadow"/>
</filter>
<filter id="filter10_i" x="324" y="48" width="78" height="14" filterUnits="userSpaceOnUse" color-interpolation-filters="sRGB">
<feFlood flood-opacity="0" result="BackgroundImageFix"/>
<feBlend mode="normal" in="SourceGraphic" in2="BackgroundImageFix" result="shape"/>
<feColorMatrix in="SourceAlpha" type="matrix" values="0 0 0 0 0 0 0 0 0 0 0 0 0 0 0 0 0 0 127 0" result="hardAlpha"/>
<feOffset/>
<feGaussianBlur stdDeviation="4"/>
<feComposite in2="hardAlpha" operator="arithmetic" k2="-1" k3="1"/>
<feColorMatrix type="matrix" values="0 0 0 0 0 0 0 0 0 0 0 0 0 0 0 0 0 0 0.48 0"/>
<feBlend mode="normal" in2="shape" result="effect1_innerShadow"/>
</filter>
<filter id="filter11_f" x="323" y="47" width="80" height="16" filterUnits="userSpaceOnUse" color-interpolation-filters="sRGB">
<feFlood flood-opacity="0" result="BackgroundImageFix"/>
<feBlend mode="normal" in="SourceGraphic" in2="BackgroundImageFix" result="shape"/>
<feGaussianBlur stdDeviation="0.5" result="effect1_foregroundBlur"/>
</filter>
<linearGradient id="paint0_linear" x1="1" y1="132.5" x2="18" y2="132.5" gradientUnits="userSpaceOnUse">
<stop offset="0.109375" stop-color="#D1D1D1"/>
<stop offset="0.317708" stop-color="#E3E3E3"/>
<stop offset="0.552083" stop-color="#D2D2D2"/>
<stop offset="0.807292" stop-color="#E6E6E6"/>
</linearGradient>
<linearGradient id="paint1_linear" x1="1" y1="1341.5" x2="18" y2="1341.5" gradientUnits="userSpaceOnUse">
<stop offset="0.109375" stop-color="#D1D1D1"/>
<stop offset="0.317708" stop-color="#E3E3E3"/>
<stop offset="0.552083" stop-color="#D2D2D2"/>
<stop offset="0.807292" stop-color="#E6E6E6"/>
</linearGradient>
<linearGradient id="paint2_linear" x1="707" y1="132.5" x2="724" y2="132.5" gradientUnits="userSpaceOnUse">
<stop offset="0.0988321" stop-color="#E6E6E6"/>
<stop offset="0.368786" stop-color="#D2D2D2"/>
<stop offset="0.624532" stop-color="#E3E3E3"/>
<stop offset="0.798581" stop-color="#D1D1D1"/>
</linearGradient>
<linearGradient id="paint3_linear" x1="707" y1="1341.5" x2="724" y2="1341.5" gradientUnits="userSpaceOnUse">
<stop offset="0.0988321" stop-color="#E6E6E6"/>
<stop offset="0.368786" stop-color="#D2D2D2"/>
<stop offset="0.624532" stop-color="#E3E3E3"/>
<stop offset="0.798581" stop-color="#D1D1D1"/>
</linearGradient>
<linearGradient id="paint4_linear" x1="568" y1="0.5" x2="585" y2="0.5" gradientUnits="userSpaceOnUse">
<stop offset="0.238306" stop-color="#D1D1D1"/>
<stop offset="0.416703" stop-color="#E3E3E3"/>
<stop offset="0.700226" stop-color="#D2D2D2"/>
<stop offset="0.926408" stop-color="#E6E6E6"/>
</linearGradient>
<linearGradient id="paint5_linear" x1="147" y1="1461.5" x2="164" y2="1461.5" gradientUnits="userSpaceOnUse">
<stop offset="0.0988321" stop-color="#E6E6E6"/>
<stop offset="0.368786" stop-color="#D2D2D2"/>
<stop offset="0.624532" stop-color="#E3E3E3"/>
<stop offset="0.798581" stop-color="#D1D1D1"/>
</linearGradient>
<linearGradient id="paint6_linear" x1="57.6772" y1="26.5449" x2="657.495" y2="1422.43" gradientUnits="userSpaceOnUse">
<stop stop-color="white" stop-opacity="0.16"/>
<stop offset="1" stop-color="white" stop-opacity="0.05"/>
</linearGradient>
<linearGradient id="paint7_linear" x1="0" y1="260.5" x2="5" y2="260.5" gradientUnits="userSpaceOnUse">
<stop stop-opacity="0"/>
<stop offset="0.333333" stop-color="#D0D0D0" stop-opacity="0.42"/>
<stop offset="1" stop-opacity="0.24"/>
</linearGradient>
<linearGradient id="paint8_linear" x1="0" y1="392.034" x2="5" y2="392.034" gradientUnits="userSpaceOnUse">
<stop stop-opacity="0"/>
<stop offset="0.333333" stop-color="#D0D0D0" stop-opacity="0.42"/>
<stop offset="1" stop-opacity="0.24"/>
</linearGradient>
<linearGradient id="paint9_linear" x1="720" y1="462.5" x2="725" y2="462.5" gradientUnits="userSpaceOnUse">
<stop stop-opacity="0.24"/>
<stop offset="0.573835" stop-color="#D0D0D0" stop-opacity="0.42"/>
<stop offset="1" stop-opacity="0"/>
</linearGradient>
<linearGradient id="paint10_linear" x1="0" y1="529.034" x2="5" y2="529.034" gradientUnits="userSpaceOnUse">
<stop stop-opacity="0"/>
<stop offset="0.333333" stop-color="#D0D0D0" stop-opacity="0.42"/>
<stop offset="1" stop-opacity="0.24"/>
</linearGradient>
<linearGradient id="paint11_linear" x1="362.5" y1="0" x2="362.5" y2="1467" gradientUnits="userSpaceOnUse">
<stop stop-color="white" stop-opacity="0.64"/>
<stop offset="1" stop-color="white" stop-opacity="0.32"/>
</linearGradient>
<linearGradient id="paint12_linear" x1="1" y1="132.5" x2="18" y2="132.5" gradientUnits="userSpaceOnUse">
<stop offset="0.123628" stop-color="#8F8F8F"/>
<stop offset="0.365738" stop-color="#525252"/>
<stop offset="0.827659" stop-color="#141414"/>
</linearGradient>
<linearGradient id="paint13_linear" x1="1" y1="1341.5" x2="18" y2="1341.5" gradientUnits="userSpaceOnUse">
<stop offset="0.123628" stop-color="#8F8F8F"/>
<stop offset="0.365738" stop-color="#525252"/>
<stop offset="0.827659" stop-color="#141414"/>
</linearGradient>
<linearGradient id="paint14_linear" x1="707" y1="132.5" x2="724" y2="132.5" gradientUnits="userSpaceOnUse">
<stop offset="0.088176" stop-color="#141414"/>
<stop offset="0.536358" stop-color="#525252"/>
<stop offset="0.756584" stop-color="#8F8F8F"/>
</linearGradient>
<linearGradient id="paint15_linear" x1="707" y1="1341.5" x2="724" y2="1341.5" gradientUnits="userSpaceOnUse">
<stop offset="0.088176" stop-color="#141414"/>
<stop offset="0.529254" stop-color="#525252"/>
<stop offset="0.770792" stop-color="#8F8F8F"/>
</linearGradient>
<linearGradient id="paint16_linear" x1="568" y1="0.5" x2="585" y2="0.5" gradientUnits="userSpaceOnUse">
<stop offset="0.420124" stop-color="#8F8F8F"/>
<stop offset="0.610413" stop-color="#525252"/>
<stop offset="0.976264" stop-color="#141414"/>
</linearGradient>
<linearGradient id="paint17_linear" x1="147" y1="1461.5" x2="164" y2="1461.5" gradientUnits="userSpaceOnUse">
<stop offset="0.122861"/>
<stop offset="0.584624" stop-color="#292929"/>
<stop offset="0.87589" stop-color="#7A7A7A"/>
</linearGradient>
<linearGradient id="paint18_linear" x1="57.6772" y1="26.5449" x2="657.495" y2="1422.43" gradientUnits="userSpaceOnUse">
<stop stop-color="white" stop-opacity="0.16"/>
<stop offset="1" stop-color="white" stop-opacity="0.05"/>
</linearGradient>
<linearGradient id="paint19_linear" x1="0" y1="260.5" x2="5" y2="260.5" gradientUnits="userSpaceOnUse">
<stop stop-color="white" stop-opacity="0.08"/>
<stop offset="0.276042" stop-color="white" stop-opacity="0.24"/>
<stop offset="1" stop-color="white" stop-opacity="0"/>
</linearGradient>
<linearGradient id="paint20_linear" x1="0" y1="392.034" x2="5" y2="392.034" gradientUnits="userSpaceOnUse">
<stop stop-color="white" stop-opacity="0.08"/>
<stop offset="0.276042" stop-color="white" stop-opacity="0.24"/>
<stop offset="1" stop-color="white" stop-opacity="0"/>
</linearGradient>
<linearGradient id="paint21_linear" x1="720" y1="462.5" x2="725" y2="462.5" gradientUnits="userSpaceOnUse">
<stop stop-color="white" stop-opacity="0"/>
<stop offset="0.630208" stop-color="white" stop-opacity="0.24"/>
<stop offset="1" stop-color="white" stop-opacity="0.08"/>
</linearGradient>
<linearGradient id="paint22_linear" x1="0" y1="529.034" x2="5" y2="529.034" gradientUnits="userSpaceOnUse">
<stop stop-color="white" stop-opacity="0.08"/>
<stop offset="0.276042" stop-color="white" stop-opacity="0.24"/>
<stop offset="1" stop-color="white" stop-opacity="0"/>
</linearGradient>
<linearGradient id="paint23_linear" x1="363" y1="48" x2="363" y2="62" gradientUnits="userSpaceOnUse">
<stop/>
<stop offset="0.483028" stop-color="#484848"/>
<stop offset="1"/>
</linearGradient>
<radialGradient id="paint24_radial" cx="0" cy="0" r="1" gradientUnits="userSpaceOnUse" gradientTransform="translate(434.5 61.5) rotate(-127.694) scale(13.9014)">
<stop stop-color="#242424"/>
<stop offset="1" stop-color="#161616"/>
</radialGradient>
<radialGradient id="paint25_radial" cx="0" cy="0" r="1" gradientUnits="userSpaceOnUse" gradientTransform="translate(432 55) rotate(90) scale(14)">
<stop offset="0.463542" stop-opacity="0.25"/>
<stop offset="0.645833" stop-opacity="0"/>
</radialGradient>
<linearGradient id="paint26_linear" x1="432" y1="48" x2="432" y2="62" gradientUnits="userSpaceOnUse">
<stop stop-color="#0B528D"/>
<stop offset="0.276042" stop-color="#3625AF"/>
<stop offset="0.510417" stop-color="#070D17"/>
<stop offset="0.734375" stop-color="#16618F"/>
<stop offset="1" stop-color="#021762"/>
</linearGradient>
<radialGradient id="paint27_radial" cx="0" cy="0" r="1" gradientUnits="userSpaceOnUse" gradientTransform="translate(426.5 53.5) rotate(58.3925) scale(7.63217)">
<stop stop-color="#070D17"/>
<stop offset="1" stop-color="#070D17" stop-opacity="0"/>
</radialGradient>
<radialGradient id="paint28_radial" cx="0" cy="0" r="1" gradientUnits="userSpaceOnUse" gradientTransform="translate(433 56) rotate(106.699) scale(5.22015)">
<stop offset="0.146834" stop-color="#070D17"/>
<stop offset="1" stop-color="#070D17" stop-opacity="0"/>
</radialGradient>
<radialGradient id="paint29_radial" cx="0" cy="0" r="1" gradientUnits="userSpaceOnUse" gradientTransform="translate(434 53.5) rotate(128.66) scale(3.20156)">
<stop stop-color="#6356D7"/>
<stop offset="1" stop-color="#15368A" stop-opacity="0"/>
</radialGradient>
<radialGradient id="paint30_radial" cx="0" cy="0" r="1" gradientUnits="userSpaceOnUse" gradientTransform="translate(432 55) rotate(90) scale(7)">
<stop offset="0.828125" stop-opacity="0"/>
<stop offset="1" stop-opacity="0.85"/>
</radialGradient>
</defs>
</svg>
